<svg width="21" height="20" viewBox="0 0 21 20" fill="none" xmlns="http://www.w3.org/2000/svg">
<path fill-rule="evenodd" clip-rule="evenodd" d="M10.6816 0C5.01842 0 0.428467 4.58996 0.428467 10.2531C0.428467 14.7824 3.36542 18.6261 7.44036 19.983C7.95332 20.0755 8.13836 19.7599 8.13836 19.4886C8.13836 19.2449 8.13014 18.5993 8.12705 17.7451C5.27439 18.3639 4.67199 16.3696 4.67199 16.3696C4.20734 15.1854 3.53401 14.8698 3.53401 14.8698C2.60368 14.2335 3.60494 14.2479 3.60494 14.2479C4.63498 14.3198 5.17468 15.3046 5.17468 15.3046C6.08958 16.8713 7.57605 16.419 8.15789 16.1568C8.25144 15.4938 8.51871 15.0415 8.81066 14.7855C6.5347 14.5275 4.14155 13.6475 4.14155 9.71755C4.14155 8.60013 4.54144 7.68316 5.19421 6.96769C5.09038 6.70761 4.73573 5.6642 5.29598 4.2538C5.29598 4.2538 6.1564 3.97728 8.11472 5.30338C8.95108 5.07585 9.81381 4.95972 10.6806 4.95797C11.5473 4.95938 12.4101 5.07552 13.2464 5.30338C15.2058 3.97625 16.0652 4.2538 16.0652 4.2538C16.6254 5.6642 16.2738 6.70761 16.1669 6.96769C16.8248 7.68316 17.2196 8.5991 17.2196 9.71755C17.2196 13.6578 14.8244 14.5234 12.5402 14.7773C12.9051 15.0939 13.2341 15.7189 13.2341 16.675C13.2341 18.0463 13.2217 19.1524 13.2217 19.4886C13.2217 19.763 13.4047 20.0817 13.928 19.981C18.0009 18.622 20.9347 14.7814 20.9347 10.2531C20.9347 4.58996 16.3448 0 10.6816 0Z" fill="white"/>
</svg>
