<svg width="21" height="20" viewBox="0 0 21 20" fill="none" xmlns="http://www.w3.org/2000/svg">
<path fill-rule="evenodd" clip-rule="evenodd" d="M5.75048 2.40783C5.75048 3.73764 4.67246 4.81567 3.34265 4.81567C2.01284 4.81567 0.934814 3.73764 0.934814 2.40783C0.934814 1.07802 2.01284 0 3.34265 0C4.67246 0 5.75048 1.07802 5.75048 2.40783ZM8.02432 19.9989V6.64028H12.0058V8.46706H12.062C12.6155 7.41831 13.9691 6.31013 15.9884 6.31013C20.1945 6.31013 20.9692 9.07562 20.9692 12.6742V20H16.8193V13.5028C16.8193 11.9545 16.7929 9.9615 14.6613 9.9615C12.4999 9.9615 12.172 11.6496 12.172 13.3928V19.9989H8.02432ZM5.4195 6.64028H1.26522V19.9989H5.4195V6.64028Z" fill="white"/>
</svg>
