<svg width="21" height="20" viewBox="0 0 21 20" fill="none" xmlns="http://www.w3.org/2000/svg">
<path d="M2.04067 0C1.44893 0 0.969238 0.479695 0.969238 1.07143V1.78571C0.969238 2.37745 1.44893 2.85714 2.04067 2.85714H2.39781C11.0766 2.85714 18.1121 9.89267 18.1121 18.5714V18.9286C18.1121 19.5203 18.5918 20 19.1835 20H19.8978C20.4895 20 20.9692 19.5203 20.9692 18.9286V18.5714C20.9692 8.31471 12.6545 0 2.39781 0H2.04067Z" fill="white"/>
<path d="M0.969238 8.21429C0.969238 7.62255 1.44893 7.14286 2.04067 7.14286H2.39781C8.70964 7.14286 13.8264 12.2596 13.8264 18.5714V18.9286C13.8264 19.5203 13.3467 20 12.755 20H12.0407C11.4489 20 10.9692 19.5203 10.9692 18.9286V18.5714C10.9692 13.8376 7.13168 10 2.39781 10H2.04067C1.44893 10 0.969238 9.52031 0.969238 8.92857V8.21429Z" fill="white"/>
<path d="M6.68352 17.1429C6.68352 18.7208 5.40434 20 3.82638 20C2.24842 20 0.969238 18.7208 0.969238 17.1429C0.969238 15.5649 2.24842 14.2857 3.82638 14.2857C5.40434 14.2857 6.68352 15.5649 6.68352 17.1429Z" fill="white"/>
</svg>
