<svg width="13" height="13" viewBox="0 0 13 13" fill="none" xmlns="http://www.w3.org/2000/svg">
<path fill-rule="evenodd" clip-rule="evenodd" d="M12.9991 13C12.9991 5.83141 7.16772 0 0 0V1.73322C6.21185 1.73322 11.2659 6.78728 11.2659 13H12.9991ZM6.93287 13H8.66608C8.66608 8.22065 4.77848 4.33304 0 4.33304V6.06626C3.82261 6.06626 6.93287 9.17651 6.93287 13ZM3.46643 11.2659C3.46643 12.2231 2.69045 12.9991 1.73322 12.9991C0.775988 12.9991 0 12.2231 0 11.2659C0 10.3087 0.775988 9.53269 1.73322 9.53269C2.69045 9.53269 3.46643 10.3087 3.46643 11.2659Z" fill="#8C8FB8"/>
</svg>
