<svg width="13" height="11" viewBox="0 0 13 11" fill="none" xmlns="http://www.w3.org/2000/svg">
<path fill-rule="evenodd" clip-rule="evenodd" d="M-2.40413e-07 5.5C-2.5701e-07 5.1203 0.311801 4.8125 0.696428 4.8125L10.5745 4.8125L6.71373 1.18307C6.43648 0.919903 6.42783 0.484687 6.69442 0.210989C6.96101 -0.0627076 7.40188 -0.0712416 7.67913 0.191929L12.7863 5.00443C12.9228 5.13405 13 5.31299 13 5.5C13 5.68701 12.9228 5.86595 12.7863 5.99557L7.67913 10.8081C7.40188 11.0712 6.96101 11.0627 6.69442 10.789C6.42783 10.5153 6.43648 10.0801 6.71373 9.81693L10.5745 6.1875L0.696428 6.1875C0.311802 6.1875 -2.23816e-07 5.8797 -2.40413e-07 5.5Z" fill="#D6D6ED"/>
</svg>
